<mxfile host="app.diagrams.net" modified="2024-02-16T18:31:53.110Z" agent="Mozilla/5.0 (Windows NT 10.0; Win64; x64) AppleWebKit/537.36 (KHTML, like Gecko) Chrome/121.0.0.0 Safari/537.36" etag="5v_sqyzchSmG7bLzJEXH" version="23.1.5" type="google">
  <diagram id="C5RBs43oDa-KdzZeNtuy" name="Page-1">
    <mxGraphModel grid="1" page="1" gridSize="10" guides="1" tooltips="1" connect="1" arrows="1" fold="1" pageScale="1" pageWidth="827" pageHeight="1169" math="0" shadow="0">
      <root>
        <mxCell id="WIyWlLk6GJQsqaUBKTNV-0" />
        <mxCell id="WIyWlLk6GJQsqaUBKTNV-1" parent="WIyWlLk6GJQsqaUBKTNV-0" />
        <mxCell id="zsh9sCKFQ6KEEiNJPHPw-8" style="edgeStyle=orthogonalEdgeStyle;rounded=0;orthogonalLoop=1;jettySize=auto;html=1;entryX=0;entryY=0.5;entryDx=0;entryDy=0;" edge="1" parent="WIyWlLk6GJQsqaUBKTNV-1" source="WIyWlLk6GJQsqaUBKTNV-3" target="zsh9sCKFQ6KEEiNJPHPw-0">
          <mxGeometry relative="1" as="geometry" />
        </mxCell>
        <mxCell id="zsh9sCKFQ6KEEiNJPHPw-11" style="edgeStyle=orthogonalEdgeStyle;rounded=0;orthogonalLoop=1;jettySize=auto;html=1;exitX=1;exitY=0.5;exitDx=0;exitDy=0;entryX=0;entryY=0.25;entryDx=0;entryDy=0;" edge="1" parent="WIyWlLk6GJQsqaUBKTNV-1" source="WIyWlLk6GJQsqaUBKTNV-3" target="zsh9sCKFQ6KEEiNJPHPw-1">
          <mxGeometry relative="1" as="geometry">
            <Array as="points">
              <mxPoint x="185" y="350" />
              <mxPoint x="185" y="278" />
            </Array>
          </mxGeometry>
        </mxCell>
        <mxCell id="zsh9sCKFQ6KEEiNJPHPw-12" style="edgeStyle=orthogonalEdgeStyle;rounded=0;orthogonalLoop=1;jettySize=auto;html=1;entryX=0;entryY=0.5;entryDx=0;entryDy=0;" edge="1" parent="WIyWlLk6GJQsqaUBKTNV-1" source="WIyWlLk6GJQsqaUBKTNV-3" target="zsh9sCKFQ6KEEiNJPHPw-2">
          <mxGeometry relative="1" as="geometry" />
        </mxCell>
        <mxCell id="zsh9sCKFQ6KEEiNJPHPw-13" style="edgeStyle=orthogonalEdgeStyle;rounded=0;orthogonalLoop=1;jettySize=auto;html=1;entryX=0;entryY=0.5;entryDx=0;entryDy=0;" edge="1" parent="WIyWlLk6GJQsqaUBKTNV-1" source="WIyWlLk6GJQsqaUBKTNV-3" target="zsh9sCKFQ6KEEiNJPHPw-3">
          <mxGeometry relative="1" as="geometry" />
        </mxCell>
        <mxCell id="WIyWlLk6GJQsqaUBKTNV-3" value="Home Page" style="rounded=1;whiteSpace=wrap;html=1;fontSize=12;glass=0;strokeWidth=1;shadow=0;arcSize=0;" vertex="1" parent="WIyWlLk6GJQsqaUBKTNV-1">
          <mxGeometry x="10" y="330" width="120" height="40" as="geometry" />
        </mxCell>
        <mxCell id="zsh9sCKFQ6KEEiNJPHPw-17" style="edgeStyle=orthogonalEdgeStyle;rounded=0;orthogonalLoop=1;jettySize=auto;html=1;entryX=0;entryY=0.5;entryDx=0;entryDy=0;" edge="1" parent="WIyWlLk6GJQsqaUBKTNV-1" source="zsh9sCKFQ6KEEiNJPHPw-0" target="zsh9sCKFQ6KEEiNJPHPw-16">
          <mxGeometry relative="1" as="geometry" />
        </mxCell>
        <mxCell id="zsh9sCKFQ6KEEiNJPHPw-0" value="TO DO" style="whiteSpace=wrap;html=1;" vertex="1" parent="WIyWlLk6GJQsqaUBKTNV-1">
          <mxGeometry x="240" y="220" width="120" height="30" as="geometry" />
        </mxCell>
        <mxCell id="zsh9sCKFQ6KEEiNJPHPw-18" style="edgeStyle=orthogonalEdgeStyle;rounded=0;orthogonalLoop=1;jettySize=auto;html=1;exitX=1;exitY=0.5;exitDx=0;exitDy=0;" edge="1" parent="WIyWlLk6GJQsqaUBKTNV-1" source="zsh9sCKFQ6KEEiNJPHPw-1" target="zsh9sCKFQ6KEEiNJPHPw-16">
          <mxGeometry relative="1" as="geometry" />
        </mxCell>
        <mxCell id="zsh9sCKFQ6KEEiNJPHPw-1" value="DOING" style="whiteSpace=wrap;html=1;" vertex="1" parent="WIyWlLk6GJQsqaUBKTNV-1">
          <mxGeometry x="240" y="270" width="120" height="30" as="geometry" />
        </mxCell>
        <mxCell id="zsh9sCKFQ6KEEiNJPHPw-19" style="edgeStyle=orthogonalEdgeStyle;rounded=0;orthogonalLoop=1;jettySize=auto;html=1;" edge="1" parent="WIyWlLk6GJQsqaUBKTNV-1" source="zsh9sCKFQ6KEEiNJPHPw-2" target="zsh9sCKFQ6KEEiNJPHPw-16">
          <mxGeometry relative="1" as="geometry" />
        </mxCell>
        <mxCell id="zsh9sCKFQ6KEEiNJPHPw-2" value="DONE" style="whiteSpace=wrap;html=1;" vertex="1" parent="WIyWlLk6GJQsqaUBKTNV-1">
          <mxGeometry x="240" y="330" width="120" height="20" as="geometry" />
        </mxCell>
        <mxCell id="zsh9sCKFQ6KEEiNJPHPw-20" style="edgeStyle=orthogonalEdgeStyle;rounded=0;orthogonalLoop=1;jettySize=auto;html=1;" edge="1" parent="WIyWlLk6GJQsqaUBKTNV-1" source="zsh9sCKFQ6KEEiNJPHPw-3" target="zsh9sCKFQ6KEEiNJPHPw-16">
          <mxGeometry relative="1" as="geometry" />
        </mxCell>
        <mxCell id="zsh9sCKFQ6KEEiNJPHPw-3" value="DROPPED" style="whiteSpace=wrap;html=1;" vertex="1" parent="WIyWlLk6GJQsqaUBKTNV-1">
          <mxGeometry x="240" y="380" width="120" height="30" as="geometry" />
        </mxCell>
        <mxCell id="zsh9sCKFQ6KEEiNJPHPw-6" style="edgeStyle=orthogonalEdgeStyle;rounded=0;orthogonalLoop=1;jettySize=auto;html=1;exitX=0.5;exitY=1;exitDx=0;exitDy=0;" edge="1" parent="WIyWlLk6GJQsqaUBKTNV-1" source="zsh9sCKFQ6KEEiNJPHPw-3" target="zsh9sCKFQ6KEEiNJPHPw-3">
          <mxGeometry relative="1" as="geometry" />
        </mxCell>
        <mxCell id="zsh9sCKFQ6KEEiNJPHPw-14" value="Create Task" style="rounded=0;whiteSpace=wrap;html=1;" vertex="1" parent="WIyWlLk6GJQsqaUBKTNV-1">
          <mxGeometry x="440" y="170" width="120" height="30" as="geometry" />
        </mxCell>
        <mxCell id="zsh9sCKFQ6KEEiNJPHPw-16" value="Update Task&lt;br&gt;List Task&lt;br&gt;Delete Task" style="whiteSpace=wrap;html=1;aspect=fixed;" vertex="1" parent="WIyWlLk6GJQsqaUBKTNV-1">
          <mxGeometry x="460" y="300" width="160" height="160" as="geometry" />
        </mxCell>
        <mxCell id="zsh9sCKFQ6KEEiNJPHPw-21" value="" style="endArrow=classic;html=1;rounded=0;" edge="1" parent="WIyWlLk6GJQsqaUBKTNV-1">
          <mxGeometry width="50" height="50" relative="1" as="geometry">
            <mxPoint x="620" y="390" as="sourcePoint" />
            <mxPoint x="690" y="390" as="targetPoint" />
          </mxGeometry>
        </mxCell>
        <mxCell id="zsh9sCKFQ6KEEiNJPHPw-22" value="Delete Task" style="text;html=1;align=center;verticalAlign=middle;resizable=0;points=[];autosize=1;strokeColor=none;fillColor=none;" vertex="1" parent="WIyWlLk6GJQsqaUBKTNV-1">
          <mxGeometry x="610" y="360" width="90" height="30" as="geometry" />
        </mxCell>
        <mxCell id="zsh9sCKFQ6KEEiNJPHPw-24" value="Save/Discard" style="triangle;whiteSpace=wrap;html=1;" vertex="1" parent="WIyWlLk6GJQsqaUBKTNV-1">
          <mxGeometry x="696" y="440" width="104" height="100" as="geometry" />
        </mxCell>
        <mxCell id="zsh9sCKFQ6KEEiNJPHPw-25" value="" style="endArrow=classic;html=1;rounded=0;entryX=-0.02;entryY=0.435;entryDx=0;entryDy=0;entryPerimeter=0;" edge="1" parent="WIyWlLk6GJQsqaUBKTNV-1" target="zsh9sCKFQ6KEEiNJPHPw-24">
          <mxGeometry width="50" height="50" relative="1" as="geometry">
            <mxPoint x="620" y="400" as="sourcePoint" />
            <mxPoint x="600" y="430" as="targetPoint" />
            <Array as="points" />
          </mxGeometry>
        </mxCell>
        <mxCell id="zsh9sCKFQ6KEEiNJPHPw-31" style="edgeStyle=orthogonalEdgeStyle;rounded=0;orthogonalLoop=1;jettySize=auto;html=1;entryX=0;entryY=0.5;entryDx=0;entryDy=0;" edge="1" parent="WIyWlLk6GJQsqaUBKTNV-1" source="zsh9sCKFQ6KEEiNJPHPw-27" target="zsh9sCKFQ6KEEiNJPHPw-30">
          <mxGeometry relative="1" as="geometry" />
        </mxCell>
        <mxCell id="zsh9sCKFQ6KEEiNJPHPw-32" style="edgeStyle=orthogonalEdgeStyle;rounded=0;orthogonalLoop=1;jettySize=auto;html=1;entryX=0;entryY=0.5;entryDx=0;entryDy=0;" edge="1" parent="WIyWlLk6GJQsqaUBKTNV-1" source="zsh9sCKFQ6KEEiNJPHPw-27" target="zsh9sCKFQ6KEEiNJPHPw-29">
          <mxGeometry relative="1" as="geometry" />
        </mxCell>
        <mxCell id="zsh9sCKFQ6KEEiNJPHPw-27" value="Yes/No" style="rhombus;whiteSpace=wrap;html=1;" vertex="1" parent="WIyWlLk6GJQsqaUBKTNV-1">
          <mxGeometry x="690" y="350" width="80" height="80" as="geometry" />
        </mxCell>
        <mxCell id="zsh9sCKFQ6KEEiNJPHPw-29" value="Delete" style="rounded=0;whiteSpace=wrap;html=1;" vertex="1" parent="WIyWlLk6GJQsqaUBKTNV-1">
          <mxGeometry x="810" y="290" width="120" height="60" as="geometry" />
        </mxCell>
        <mxCell id="zsh9sCKFQ6KEEiNJPHPw-30" value="Close the prompt" style="rounded=0;whiteSpace=wrap;html=1;" vertex="1" parent="WIyWlLk6GJQsqaUBKTNV-1">
          <mxGeometry x="810" y="420" width="120" height="60" as="geometry" />
        </mxCell>
        <mxCell id="zsh9sCKFQ6KEEiNJPHPw-33" value="" style="endArrow=classic;html=1;rounded=0;entryX=0;entryY=0.5;entryDx=0;entryDy=0;" edge="1" parent="WIyWlLk6GJQsqaUBKTNV-1" target="zsh9sCKFQ6KEEiNJPHPw-14">
          <mxGeometry width="50" height="50" relative="1" as="geometry">
            <mxPoint x="360" y="230" as="sourcePoint" />
            <mxPoint x="410" y="180" as="targetPoint" />
          </mxGeometry>
        </mxCell>
        <mxCell id="zsh9sCKFQ6KEEiNJPHPw-35" value="" style="endArrow=classic;html=1;rounded=0;" edge="1" parent="WIyWlLk6GJQsqaUBKTNV-1">
          <mxGeometry width="50" height="50" relative="1" as="geometry">
            <mxPoint x="560" y="170" as="sourcePoint" />
            <mxPoint x="610" y="120" as="targetPoint" />
          </mxGeometry>
        </mxCell>
        <mxCell id="zsh9sCKFQ6KEEiNJPHPw-37" value="A description" style="whiteSpace=wrap;html=1;" vertex="1" parent="WIyWlLk6GJQsqaUBKTNV-1">
          <mxGeometry x="610" y="90" width="120" height="40" as="geometry" />
        </mxCell>
        <mxCell id="zsh9sCKFQ6KEEiNJPHPw-40" value="Ask deadline" style="whiteSpace=wrap;html=1;" vertex="1" parent="WIyWlLk6GJQsqaUBKTNV-1">
          <mxGeometry x="610" y="180" width="120" height="40" as="geometry" />
        </mxCell>
        <mxCell id="zsh9sCKFQ6KEEiNJPHPw-41" value="" style="endArrow=classic;html=1;rounded=0;entryX=0;entryY=0.5;entryDx=0;entryDy=0;" edge="1" parent="WIyWlLk6GJQsqaUBKTNV-1" target="zsh9sCKFQ6KEEiNJPHPw-40">
          <mxGeometry width="50" height="50" relative="1" as="geometry">
            <mxPoint x="560" y="190" as="sourcePoint" />
            <mxPoint x="610" y="140" as="targetPoint" />
          </mxGeometry>
        </mxCell>
        <mxCell id="zsh9sCKFQ6KEEiNJPHPw-42" value="Create Task" style="rounded=0;whiteSpace=wrap;html=1;" vertex="1" parent="WIyWlLk6GJQsqaUBKTNV-1">
          <mxGeometry x="780" y="130" width="120" height="40" as="geometry" />
        </mxCell>
        <mxCell id="zsh9sCKFQ6KEEiNJPHPw-43" value="" style="endArrow=classic;html=1;rounded=0;entryX=0;entryY=0.5;entryDx=0;entryDy=0;" edge="1" parent="WIyWlLk6GJQsqaUBKTNV-1" target="zsh9sCKFQ6KEEiNJPHPw-42">
          <mxGeometry width="50" height="50" relative="1" as="geometry">
            <mxPoint x="730" y="110" as="sourcePoint" />
            <mxPoint x="780" y="60" as="targetPoint" />
          </mxGeometry>
        </mxCell>
        <mxCell id="zsh9sCKFQ6KEEiNJPHPw-44" value="" style="endArrow=classic;html=1;rounded=0;" edge="1" parent="WIyWlLk6GJQsqaUBKTNV-1">
          <mxGeometry width="50" height="50" relative="1" as="geometry">
            <mxPoint x="730" y="200" as="sourcePoint" />
            <mxPoint x="780" y="150" as="targetPoint" />
          </mxGeometry>
        </mxCell>
      </root>
    </mxGraphModel>
  </diagram>
</mxfile>
